<?xml version="1.0" encoding="UTF-8"?>
<svg id="Layer_1" xmlns="http://www.w3.org/2000/svg" version="1.1" viewBox="0 0 498.6 99.1">
  <!-- Generator: Adobe Illustrator 29.0.1, SVG Export Plug-In . SVG Version: 2.1.0 Build 192)  -->
  <defs>
    <style>
      .st0 {
        fill: #ee2041;
      }

      .st1 {
        fill: #fff;
      }
    </style>
  </defs>
  <g>
    <path class="st0" d="M418.4,52.8l3.2-10.2c.5-1.9.9-3.9,1.3-5.9h.5c.3,2,.8,3.9,1.3,5.9l3.1,10.2h-9.4ZM417.9,31.8l-9.5,31.2h-16v-31.2h-7.1v37.1h28.4l3.3-10.4h12.1l3.2,10.4h7.4l-11.4-37.1h-10.6Z"/>
    <path class="st0" d="M462,58.2c0,5.2-4.1,5.3-11.8,5.3h-1.9v-11.1h6.4c5.8,0,7.3,2,7.3,5.3v.6ZM448.3,37.2h4.2c6,0,9.5.3,9.5,4.6v.4c0,3.1-1.4,5-7.2,5h-6.4v-10ZM464,49.8c1.5-.7,2.7-1.8,3.6-3.2.8-1.4,1.3-3,1.2-4.6v-.4c0-8.4-6.2-10.1-16.3-10.1s-6.1,0-11.1.3v37.1c4.8.2,6.6.3,10.8.3,9.7,0,16.7-1.7,16.7-11v-.5c0-1.6-.4-3.3-1.2-4.7-.9-1.4-2.2-2.5-3.7-3.1Z"/>
    <path class="st0" d="M489.5,47.6l-5.1-2.1c-3.8-1.5-4.8-2.6-4.8-4.9s2.4-3.7,6.8-3.7,7.8.4,10.7.7v-5.3c-3.6-.8-7.3-1.2-11-1.2-8.9,0-13.4,2.6-13.4,9.8s3,8.5,8.5,10.8l5.7,2.3c3.8,1.5,4.7,2.9,4.7,5.3s-2.2,4.6-6.7,4.6c-3.8,0-7.6-.2-11.4-.6v5.3c3.9.8,7.9,1.2,11.8,1.2,8.4,0,13.2-3.7,13.2-10.6.2-6.3-2.4-9-9-11.6Z"/>
    <path class="st1" d="M150.9,49.6h-3.9c-6.5,0-9.3-1.3-9.3-6.1v-.3c0-5.8,4-5.8,13.2-5.8v12.3ZM130.7,43.1v.3c0,5.6,2.5,8.6,6.5,10.3l-8.8,15.1h7.6l8.3-13.7h6.8v13.7h6.9V31.8c-3.3-.1-6.7-.2-10.5-.2-9.1,0-16.6,1.8-16.6,11.6Z"/>
    <path class="st1" d="M202.3,57.6c-.7,2.2-1.1,4.6-1.5,6.7-.5-1.9-.9-4.5-1.5-6.7l-7.7-25.8h-29.1v37h23.9v-5.6h-16.8v-10.6h15.7v-5.6h-15.7v-9.4h16.5l9.5,31.3h10.3l11.4-37.1h-7.1l-7.6,25.7Z"/>
    <polygon class="st1" points="219.1 68.9 243 68.9 243 63.2 226.2 63.2 226.2 52.6 242 52.6 242 47 226.2 47 226.2 37.6 243 37.6 243 31.8 219.1 31.8 219.1 68.9"/>
    <path class="st1" d="M267.2,43.5c0,4.8-2.9,6.1-9.3,6.1h-3.9v-12.2c9.2,0,13.2,0,13.2,5.8v.2ZM274.1,43.5v-.3c0-9.8-7.5-11.6-16.5-11.6s-7.2,0-10.5.2v37.1h6.9v-13.7h6.8l8.3,13.7h7.5l-8.9-15c4-1.8,6.5-4.7,6.5-10.4Z"/>
    <path class="st1" d="M294.2,47.6l-5.1-2c-3.8-1.5-4.8-2.7-4.8-4.9s2.4-3.7,6.8-3.7,7.8.4,10.7.7v-5.3c-3.6-.8-7.3-1.2-11-1.2-8.9,0-13.4,2.6-13.4,9.8s3,8.5,8.5,10.8l5.7,2.3c3.8,1.5,4.7,2.9,4.7,5.3s-2.2,4.6-6.7,4.6c-3.8,0-7.5-.2-11.3-.6v5.4c3.9.8,7.8,1.2,11.8,1.1,8.4,0,13.2-3.7,13.2-10.6,0-6.3-2.6-9-9.1-11.6Z"/>
    <rect class="st1" x="306.5" y="31.8" width="7.1" height="37.1"/>
    <path class="st1" d="M341.9,52c0,2.2,0,4.9.2,7h-.2c-.8-1.9-1.9-4-2.9-5.6l-12-21.6h-8.2v37h6.5v-20.9c0-2.2-.1-4.5-.2-6.6h0c.9,1.9,1.9,3.8,2.8,5.6l12,22h8.2V31.8h-6.4v20.2Z"/>
    <path class="st1" d="M370.8,49.1v5.3h2.9v9c-1.3.1-3.2.1-5.1.1-6.1,0-9.2-2.1-9.2-10.6v-5.2c0-9.3,3.9-10.6,10-10.6s8.4.3,10.8.5v-5.3c-4-.8-8-1.3-12.1-1.3-7.8,0-15.8,2.5-15.8,16.7v5.2c0,13.5,7.1,16.8,15.7,16.8,4.1,0,8.2-.4,12.3-1.1v-19.5h-9.6Z"/>
  </g>
  <g>
    <rect class="st0" width="99.1" height="99.1"/>
    <g>
      <polygon class="st1" points="57 68.6 57 31 64.1 31 64.1 62.6 80 62.6 80 68.6 57 68.6"/>
      <path class="st1" d="M29.8,42.8c0,4.9,2.9,6.3,9.4,6.3h3.9v-12.3c-9.2,0-13.3,0-13.3,5.9v.2ZM20.5,68.6l8.9-15.3c-2.1-.8-3.8-2.2-5-4.1-1.2-1.9-1.7-4.1-1.5-6.3v-.3c0-9.9,7.5-11.7,16.6-11.7s7.2,0,10.5.2v37.6h-6.9v-13.9h-6.8l-8.3,13.9h-7.5Z"/>
    </g>
  </g>
</svg>